<svg width="150" height="27" viewBox="0 0 150 27" fill="none" xmlns="http://www.w3.org/2000/svg">
<g clip-path="url(#clip0_1221_35992)">
<path d="M21.33 2.54395H1.23023C0.588748 2.54395 0.000722505 3.07395 0.000722505 3.76295V5.98895C0.000722505 6.67795 0.588748 7.26095 1.23023 7.26095H21.33C22.025 7.26095 22.5595 6.67795 22.613 5.98895V3.81595C22.613 3.07395 22.025 2.54395 21.33 2.54395ZM21.33 15.0519H1.23023C0.909489 15.0519 0.588748 15.2109 0.321464 15.4229C0.107636 15.6349 -0.0527344 15.9529 -0.0527344 16.3239V18.5499C-0.0527344 19.2389 0.535291 19.8219 1.17677 19.8219H21.2766C21.9715 19.8219 22.5061 19.2919 22.5595 18.5499V16.3239C22.613 15.5819 22.025 15.0519 21.33 15.0519ZM12.5631 21.2529H1.23023C0.909489 21.2529 0.588748 21.3589 0.374921 21.6239C0.161093 21.8359 0.000722505 22.1539 0.000722505 22.5249V24.7509C0.000722505 25.4399 0.588748 26.0229 1.23023 26.0229H12.5096C13.2046 26.0229 13.7391 25.4399 13.7391 24.7509V22.4719C13.7926 21.8359 13.258 21.2529 12.5631 21.2529ZM22.613 8.79795H1.23023C0.909489 8.79795 0.588748 8.90394 0.374921 9.16895C0.161093 9.38095 0.000722505 9.69895 0.000722505 10.0699V12.2959C0.000722505 12.9849 0.588748 13.5679 1.23023 13.5679H22.5595C23.2545 13.5679 23.789 12.9849 23.789 12.2959V10.0699C23.8425 9.32795 23.3079 8.79795 22.613 8.79795Z" fill="#00C3F7"/>
<path d="M45.9732 7.579C45.3317 6.943 44.6367 6.466 43.7814 6.095C42.9796 5.724 42.0708 5.565 41.162 5.565C40.3067 5.565 39.4514 5.724 38.6496 6.095C38.115 6.36 37.6339 6.678 37.2597 7.102V6.731C37.2597 6.519 37.1528 6.36 37.0459 6.201C36.8855 6.042 36.7251 5.936 36.5113 5.936H33.6781C33.4643 5.936 33.2504 6.042 33.1435 6.201C32.9831 6.36 32.9297 6.519 32.9297 6.731V25.281C32.9297 25.493 33.0366 25.652 33.1435 25.811C33.3039 25.97 33.4643 26.023 33.6781 26.023H36.5113C36.7251 26.023 36.8855 25.97 37.0459 25.811C37.2062 25.652 37.2597 25.493 37.2597 25.281V18.921C37.6873 19.345 38.1685 19.716 38.7565 19.875C39.5049 20.14 40.3067 20.299 41.0551 20.299C41.9639 20.299 42.8727 20.14 43.6745 19.769C44.5298 19.451 45.2782 18.921 45.8663 18.285C46.5077 17.596 47.0423 16.801 47.363 15.953C47.7372 14.999 47.9511 13.939 47.8976 12.932C47.8976 11.872 47.7372 10.865 47.363 9.858C47.1492 9.063 46.6146 8.268 45.9732 7.579ZM43.4607 14.31C43.3003 14.681 43.0865 15.052 42.8192 15.37C42.2312 16.006 41.4293 16.324 40.574 16.324C40.1464 16.324 39.7187 16.218 39.3445 16.059C38.9703 15.9 38.5961 15.635 38.3288 15.37C38.0615 15.052 37.7943 14.681 37.6339 14.31C37.3132 13.462 37.3132 12.561 37.6339 11.713C37.7943 11.342 38.0081 10.971 38.3288 10.653C38.6496 10.335 38.9703 10.123 39.3445 9.911C39.7187 9.752 40.1464 9.646 40.574 9.646C41.0017 9.646 41.4293 9.752 41.857 9.911C42.2312 10.07 42.5519 10.335 42.8727 10.6C43.14 10.918 43.3538 11.236 43.5142 11.66C43.7814 12.508 43.7814 13.462 43.4607 14.31ZM63.3467 5.989H60.5134C60.2996 5.989 60.1392 6.095 59.9789 6.201C59.8185 6.36 59.765 6.572 59.765 6.784V7.102C59.3908 6.678 58.9632 6.36 58.4821 6.148C57.7337 5.777 56.8784 5.618 56.0231 5.618C54.2055 5.618 52.4414 6.36 51.1585 7.632C50.517 8.321 49.9824 9.116 49.6082 9.964C49.1806 10.918 49.0202 11.978 49.0202 13.038C49.0202 14.098 49.1806 15.158 49.6082 16.112C49.9824 16.96 50.517 17.755 51.1585 18.444C52.4414 19.716 54.1521 20.458 55.9696 20.458C56.8249 20.458 57.6802 20.299 58.4286 19.928C58.9097 19.663 59.3908 19.345 59.7116 18.974V19.345C59.7116 19.557 59.8185 19.716 59.9254 19.875C60.0858 19.981 60.2462 20.087 60.46 20.087H63.2932C63.507 20.087 63.6674 19.981 63.8278 19.875C63.9881 19.716 64.0416 19.557 64.0416 19.345V6.784C64.0416 6.572 63.9881 6.413 63.8278 6.254C63.7209 6.042 63.5605 5.989 63.3467 5.989ZM59.4978 14.257C59.3374 14.628 59.1236 14.999 58.8563 15.317C58.589 15.582 58.2148 15.847 57.8406 16.059C57.0387 16.43 56.13 16.43 55.3281 16.059C54.9539 15.9 54.5797 15.635 54.3124 15.317C54.0452 14.999 53.7779 14.628 53.671 14.257C53.3502 13.409 53.3502 12.508 53.671 11.66C53.8313 11.289 54.0452 10.918 54.3124 10.6C54.5797 10.282 54.9539 10.07 55.3281 9.858C56.13 9.487 57.0387 9.487 57.8406 9.858C58.2148 10.017 58.5355 10.282 58.8563 10.547C59.1236 10.865 59.3374 11.183 59.4978 11.607C59.872 12.508 59.872 13.462 59.4978 14.257ZM91.5184 12.614C91.0908 12.243 90.6631 11.978 90.1286 11.766C89.594 11.554 89.0594 11.395 88.4714 11.289L86.3331 10.865C85.7985 10.759 85.3709 10.6 85.1571 10.441C84.9967 10.335 84.8898 10.123 84.8898 9.911C84.8898 9.699 84.9967 9.487 85.3174 9.328C85.6916 9.116 86.1193 9.01 86.4935 9.063C87.028 9.063 87.6161 9.169 88.0972 9.381C88.5783 9.593 89.0594 9.858 89.4871 10.123C90.1285 10.494 90.6631 10.441 91.0373 10.017L92.053 8.851C92.2668 8.639 92.3737 8.374 92.3737 8.109C92.3737 7.844 92.2134 7.526 91.9995 7.367C91.5719 6.996 90.8769 6.572 89.9147 6.201C89.006 5.83 87.8299 5.618 86.44 5.618C85.5847 5.618 84.7829 5.724 83.981 5.989C83.2861 6.201 82.6446 6.519 82.11 6.943C81.5755 7.314 81.2013 7.844 80.8805 8.427C80.6132 9.01 80.4529 9.593 80.4529 10.229C80.4529 11.395 80.8271 12.349 81.522 13.038C82.2169 13.727 83.1257 14.204 84.3017 14.416L86.5469 14.893C87.028 14.999 87.5092 15.105 87.9903 15.317C88.2576 15.423 88.4179 15.635 88.4179 15.953C88.4179 16.218 88.311 16.43 87.9903 16.642C87.723 16.854 87.2419 16.96 86.6539 16.96C86.0658 16.96 85.4243 16.854 84.8898 16.589C84.3552 16.324 83.8741 16.006 83.4464 15.635C83.2326 15.476 83.0188 15.37 82.805 15.264C82.5377 15.211 82.2169 15.264 81.8962 15.529L80.6667 16.483C80.3459 16.748 80.1321 17.172 80.239 17.543C80.2925 17.967 80.6667 18.338 81.2547 18.815C82.805 19.875 84.6759 20.405 86.5469 20.352C87.4022 20.352 88.311 20.246 89.1129 19.981C89.8613 19.769 90.5027 19.451 91.0908 18.974C91.6253 18.55 92.1065 18.02 92.3737 17.437C92.6945 16.854 92.8014 16.218 92.8014 15.529C92.8014 14.946 92.6945 14.363 92.4272 13.78C92.2134 13.409 91.8926 12.985 91.5184 12.614ZM103.814 16.006C103.707 15.794 103.439 15.635 103.172 15.582C102.905 15.582 102.637 15.688 102.424 15.794C102.103 16.006 101.675 16.165 101.248 16.165C101.141 16.165 100.98 16.165 100.82 16.112C100.66 16.112 100.553 16.006 100.446 15.9C100.339 15.794 100.232 15.635 100.125 15.476C100.018 15.264 99.9646 14.999 100.018 14.734V9.646H103.707C103.92 9.646 104.134 9.54 104.295 9.381C104.455 9.222 104.562 9.063 104.562 8.851V6.678C104.562 6.466 104.455 6.254 104.295 6.148C104.134 5.989 103.974 5.936 103.76 5.936H100.072V2.491C100.072 2.279 100.018 2.067 99.8577 1.961C99.6973 1.802 99.537 1.749 99.3231 1.749H96.4899C96.2761 1.749 96.0623 1.802 95.9553 1.961C95.795 2.12 95.7415 2.332 95.7415 2.491V5.989H94.1378C93.924 5.989 93.7102 6.095 93.6032 6.254C93.4429 6.413 93.3894 6.572 93.3894 6.784V8.957C93.3894 9.169 93.4429 9.328 93.6032 9.487C93.7102 9.646 93.924 9.752 94.1378 9.752H95.7415V15.794C95.7415 16.536 95.8484 17.225 96.1692 17.861C96.4365 18.391 96.8107 18.868 97.2383 19.239C97.666 19.61 98.2005 19.875 98.7886 20.034C99.3766 20.193 99.9646 20.299 100.553 20.299C101.354 20.299 102.103 20.193 102.851 19.928C103.546 19.716 104.188 19.292 104.669 18.815C104.99 18.497 105.043 17.967 104.776 17.596L103.814 16.006ZM119.316 5.989H116.483C116.269 5.989 116.109 6.095 115.948 6.201C115.788 6.36 115.734 6.572 115.734 6.784V7.102C115.36 6.678 114.933 6.36 114.451 6.148C113.703 5.777 112.848 5.618 111.992 5.618C110.175 5.618 108.464 6.36 107.181 7.632C106.54 8.321 106.005 9.116 105.631 9.964C105.203 10.918 105.043 11.978 105.043 12.985C105.043 14.045 105.203 15.052 105.631 16.059C106.005 16.907 106.54 17.702 107.181 18.391C108.464 19.663 110.175 20.405 111.992 20.405C112.848 20.405 113.703 20.246 114.451 19.875C114.933 19.61 115.414 19.292 115.734 18.921V19.292C115.734 19.504 115.788 19.663 115.948 19.822C116.109 19.981 116.269 20.034 116.483 20.034H119.316C119.744 20.034 120.064 19.716 120.064 19.292V6.784C120.064 6.572 120.011 6.413 119.851 6.254C119.69 6.042 119.53 5.989 119.316 5.989ZM115.467 14.257C115.307 14.628 115.093 14.999 114.826 15.317C114.505 15.582 114.184 15.847 113.81 16.059C113.436 16.218 112.955 16.324 112.527 16.324C112.099 16.324 111.672 16.218 111.297 16.059C110.923 15.9 110.549 15.635 110.282 15.317C110.015 14.999 109.747 14.628 109.64 14.257C109.32 13.409 109.32 12.508 109.64 11.66C109.801 11.289 110.015 10.918 110.282 10.6C110.603 10.282 110.923 10.07 111.297 9.858C111.672 9.699 112.099 9.593 112.527 9.593C112.955 9.593 113.382 9.699 113.81 9.858C114.184 10.017 114.505 10.282 114.826 10.547C115.093 10.865 115.36 11.183 115.467 11.607C115.841 12.508 115.841 13.462 115.467 14.257ZM134.819 15.794L133.215 14.575C132.894 14.31 132.627 14.257 132.359 14.363C132.146 14.469 131.932 14.628 131.771 14.787C131.397 15.211 131.023 15.582 130.542 15.9C130.061 16.165 129.526 16.324 128.938 16.271C128.297 16.271 127.709 16.112 127.174 15.741C126.64 15.37 126.265 14.84 126.052 14.257C125.891 13.833 125.838 13.409 125.838 12.985C125.838 12.561 125.891 12.084 126.052 11.66C126.212 11.289 126.426 10.918 126.693 10.6C127.014 10.282 127.335 10.07 127.709 9.911C128.083 9.752 128.564 9.646 128.992 9.646C129.526 9.646 130.114 9.752 130.542 10.017C131.023 10.335 131.397 10.706 131.771 11.13C131.932 11.289 132.146 11.448 132.359 11.554C132.627 11.66 132.894 11.607 133.215 11.342L134.819 10.123C135.032 9.964 135.193 9.805 135.246 9.593C135.353 9.328 135.3 9.063 135.193 8.851C134.551 7.897 133.696 7.102 132.68 6.519C131.611 5.936 130.328 5.618 128.885 5.618C127.869 5.618 126.853 5.83 125.945 6.201C125.036 6.572 124.234 7.102 123.539 7.791C122.844 8.48 122.31 9.275 121.935 10.123C121.187 11.978 121.187 14.098 121.935 15.953C122.31 16.854 122.844 17.649 123.539 18.285C124.982 19.663 126.853 20.405 128.885 20.405C130.328 20.405 131.611 20.087 132.68 19.504C133.696 18.921 134.551 18.126 135.193 17.172C135.353 16.96 135.353 16.695 135.246 16.43C135.139 16.165 134.979 15.953 134.819 15.794ZM149.84 18.709L145.403 12.19L149.198 7.208C149.359 6.996 149.412 6.678 149.359 6.413C149.305 6.201 149.091 5.989 148.664 5.989H145.67C145.51 5.989 145.35 6.042 145.189 6.095C144.975 6.201 144.868 6.307 144.761 6.519L141.714 10.759H140.966V0.742C140.966 0.53 140.913 0.371 140.752 0.212C140.592 0.053 140.431 0 140.218 0H137.384C137.171 0 137.01 0.053 136.85 0.212C136.689 0.371 136.636 0.53 136.636 0.742V19.186C136.636 19.398 136.743 19.61 136.85 19.716C137.01 19.875 137.171 19.928 137.384 19.928H140.218C140.431 19.928 140.592 19.822 140.752 19.716C140.913 19.557 140.966 19.398 140.966 19.186V14.31H141.768L145.082 19.398C145.296 19.769 145.67 19.981 146.044 19.981H149.198C149.68 19.981 149.893 19.769 149.947 19.557C150.054 19.292 150 18.974 149.84 18.709ZM79.3837 5.989H76.2298C76.0159 5.989 75.7486 6.042 75.5883 6.254C75.4279 6.413 75.321 6.572 75.321 6.784L72.9689 15.37H72.3809L69.8684 6.731C69.8149 6.572 69.7615 6.36 69.6011 6.201C69.4407 6.042 69.2269 5.936 69.0131 5.936H65.7522C65.3246 5.936 65.0573 6.095 64.9504 6.36C64.8434 6.625 64.8434 6.89 64.9504 7.102L68.9596 19.239C69.0131 19.398 69.12 19.61 69.2804 19.716C69.4407 19.875 69.6546 19.928 69.8684 19.928H71.579L71.4186 20.299L71.0444 21.412C70.9375 21.73 70.7237 22.048 70.403 22.313C70.1357 22.525 69.8149 22.631 69.4407 22.631C69.1735 22.631 68.8527 22.578 68.5854 22.472C68.3181 22.366 68.0509 22.207 67.837 22.048C67.6232 21.889 67.3559 21.836 67.1421 21.836H67.0886C66.7679 21.836 66.5006 21.995 66.3937 22.26L65.378 23.744C64.9504 24.38 65.2176 24.804 65.4849 25.016C66.0195 25.493 66.661 25.864 67.3559 26.129C68.1043 26.394 68.9062 26.5 69.7615 26.5C71.2048 26.5 72.4343 26.129 73.3431 25.334C74.3053 24.486 75.0003 23.373 75.3745 22.154L80.0252 7.155C80.1321 6.89 80.1321 6.625 80.0252 6.36C80.0252 6.148 79.8114 5.989 79.3837 5.989Z" fill="#011B33"/>
</g>
<defs>
<clipPath id="clip0_1221_35992">
<rect width="150" height="26.5" fill="white"/>
</clipPath>
</defs>
</svg>
