<svg width="120" height="120" viewBox="0 0 120 120" fill="none" xmlns="http://www.w3.org/2000/svg">
<rect width="120" height="120" rx="30" fill="#40B869"/>
<mask id="path-2-inside-1_558_24088" fill="white">
<path d="M92.5001 60C92.5001 42.0503 77.9498 27.5 60.0001 27.5C42.0503 27.5 27.5001 42.0503 27.5001 60C27.5001 77.9497 42.0503 92.5 60.0001 92.5C77.9498 92.5 92.5001 77.9497 92.5001 60Z"/>
<path d="M47.0001 61.625L55.1251 69.75L73.0001 50.25"/>
</mask>
<path d="M92.5001 60C92.5001 42.0503 77.9498 27.5 60.0001 27.5C42.0503 27.5 27.5001 42.0503 27.5001 60C27.5001 77.9497 42.0503 92.5 60.0001 92.5C77.9498 92.5 92.5001 77.9497 92.5001 60Z" fill="#FFFCF7"/>
<path d="M47.0001 61.625L55.1251 69.75L73.0001 50.25" fill="#FFFCF7"/>
<path d="M49.1214 59.5037C47.9498 58.3321 46.0503 58.3321 44.8787 59.5037C43.7072 60.6753 43.7072 62.5747 44.8787 63.7463L49.1214 59.5037ZM55.1251 69.75L53.0037 71.8713C53.5823 72.4499 54.3722 72.7671 55.1902 72.7493C56.0083 72.7315 56.7836 72.3804 57.3365 71.7772L55.1251 69.75ZM75.2115 52.2772C76.3311 51.0558 76.2486 49.1581 75.0272 48.0385C73.8059 46.919 71.9082 47.0015 70.7886 48.2228L75.2115 52.2772ZM92.5001 60H95.5001C95.5001 40.3934 79.6067 24.5 60.0001 24.5V27.5V30.5C76.293 30.5 89.5001 43.7071 89.5001 60H92.5001ZM60.0001 27.5V24.5C40.3935 24.5 24.5001 40.3934 24.5001 60H27.5001H30.5001C30.5001 43.7071 43.7072 30.5 60.0001 30.5V27.5ZM27.5001 60H24.5001C24.5001 79.6066 40.3935 95.5 60.0001 95.5V92.5V89.5C43.7072 89.5 30.5001 76.2929 30.5001 60H27.5001ZM60.0001 92.5V95.5C79.6067 95.5 95.5001 79.6066 95.5001 60H92.5001H89.5001C89.5001 76.2929 76.293 89.5 60.0001 89.5V92.5ZM47.0001 61.625L44.8787 63.7463L53.0037 71.8713L55.1251 69.75L57.2464 67.6287L49.1214 59.5037L47.0001 61.625ZM55.1251 69.75L57.3365 71.7772L75.2115 52.2772L73.0001 50.25L70.7886 48.2228L52.9136 67.7228L55.1251 69.75Z" fill="#40B869" mask="url(#path-2-inside-1_558_24088)"/>
</svg>
