<svg width="36" height="28" viewBox="0 0 36 28" fill="none" xmlns="http://www.w3.org/2000/svg">
<path d="M12.542 25.9424C12.5417 26.7705 11.8701 27.4421 11.042 27.4424H2.8623C2.03403 27.4424 1.36255 26.7706 1.3623 25.9424V19.5361C1.36236 17.3452 1.76213 15.0767 2.55469 12.7334L2.55566 12.7305C3.3707 10.3669 4.47426 8.13905 5.86426 6.04688V6.0459C7.12171 4.16342 8.51652 2.53716 10.0488 1.17188C10.5565 0.719786 11.2944 0.691393 11.8428 1.05664L16.3408 4.05371C17.0255 4.50996 17.2072 5.42262 16.7861 6.11133C15.6395 7.98585 14.6594 9.93228 13.8486 11.9512L13.8496 11.9521C12.9571 14.2086 12.5189 16.7092 12.542 19.46V25.9424ZM30.4609 25.9424C30.4607 26.7706 29.7892 27.4424 28.9609 27.4424H20.7822C19.954 27.4424 19.2825 26.7706 19.2822 25.9424V19.5361C19.2823 17.3452 19.682 15.0768 20.4746 12.7334L20.4756 12.7305C21.2906 10.3671 22.3933 8.13893 23.7832 6.04688L23.7842 6.0459C25.0416 4.1635 26.4355 2.53712 27.9678 1.17188C28.4755 0.719533 29.2143 0.691231 29.7627 1.05664L34.2607 4.05371C34.9454 4.50995 35.127 5.42265 34.7061 6.11133C33.5594 7.98583 32.5793 9.9323 31.7686 11.9512L31.7695 11.9521C30.877 14.2086 30.4378 16.7092 30.4609 19.46V25.9424Z" fill="#1A1A1A" stroke="#1A1A1A"/>
</svg>
