<svg width="45" height="33" viewBox="0 0 45 33" fill="none" xmlns="http://www.w3.org/2000/svg">
<g clip-path="url(#clip0_558_24173)">
<path fill-rule="evenodd" clip-rule="evenodd" d="M7.37477 27.9233C7.97387 28.3229 19.8538 28.1824 21.8827 28.0861C23.6353 28.003 24.6993 27.6252 26.2186 27.362C27.129 28.5688 28.0044 32.5779 34.1869 32.9723C43.5644 33.5709 48.7544 24.108 40.8704 16.4825C40.5551 16.1775 39.2812 15.1455 38.9739 14.9747C38.0882 14.4822 33.6812 14.7735 32.311 14.7402C31.9413 17.2089 31.8467 18.9895 30.801 20.9846C29.9995 22.5142 28.3438 24.6176 26.871 25.1863C26.8693 23.0875 27.1198 21.5717 28.1368 19.8374C29.1934 18.0361 29.0318 18.7206 28.592 18.473C28.2429 18.4139 26.9077 20.4858 26.5901 21.3057C25.956 22.9424 25.8654 23.9944 25.9176 25.9196C23.5585 26.6184 22.8648 26.9114 19.9851 26.9114C17.8042 26.9114 15.2296 27.0358 13.0975 26.8804L13.0304 14.7494L10.4694 14.77C10.2837 17.2513 10.4391 20.3139 10.4396 22.8243C10.4402 24.0116 10.6609 25.6003 10.0601 26.5101C9.16117 27.8717 8.22898 27.2858 7.37305 27.9233H7.37477ZM27.3445 26.979C28.7474 32.0912 37.3274 33.322 40.664 28.5757C45.4677 21.7425 35.7646 15.7911 35.189 15.6965C34.9155 18.6639 34.0888 20.6762 32.6808 22.6764C30.7505 25.4197 28.9698 25.7516 27.3445 26.979Z" fill="#FFFCF7"/>
<path fill-rule="evenodd" clip-rule="evenodd" d="M0.345381 6.03068C1.15373 5.71422 0.89059 5.20914 1.9575 4.04075C3.97896 1.82667 7.38551 1.33993 10.4332 1.34796L10.4406 10.64L13.0365 10.7507L13.0428 1.36C16.3393 1.10488 22.797 1.05615 25.4829 2.2188C30.8673 4.54927 28.7392 5.9464 28.9416 8.24477C29.0213 9.1523 29.2793 10.0793 29.8079 10.6956L34.9114 10.7369C34.4808 8.12953 33.1135 5.96819 31.7141 4.56246C32.0781 2.8351 34.4831 1.60193 36.8887 1.97859C40.5532 2.55246 40.2482 5.10193 40.7619 5.99456C41.1145 5.61332 40.8158 6.20267 40.9637 5.59669C41.0176 5.37654 41.0159 5.31635 41.0262 5.08703L40.9477 1.11119C38.8649 1.05787 36.7729 0.525274 34.7577 0.76606C32.3356 1.05558 31.5501 2.03019 30.454 3.18367C28.221 2.19644 27.7606 1.04239 23.3852 0.348697C20.666 -0.0824245 16.6214 0.0110235 13.756 0.00586379C9.11229 -0.00330902 3.34948 -0.0973306 0.88199 4.2867C0.76561 4.49366 0.504185 4.96033 0.418764 5.16614C0.397552 5.21717 0.317863 5.37654 0.292638 5.55312C0.213522 6.10693 0.211802 5.72798 0.347674 6.03068H0.345381Z" fill="#FFFCF7"/>
<path d="M0.758696 13.3215H-0.0107422V11.3581H0.732163C1.30792 11.3581 1.70855 11.7614 1.70855 12.3451C1.70855 12.9182 1.31853 13.3215 0.758696 13.3215ZM0.689712 11.7561H0.419082V12.9235H0.716244C1.05586 12.9235 1.25485 12.7086 1.25485 12.3451C1.25485 11.9736 1.04525 11.7561 0.689712 11.7561Z" fill="#FFFCF7"/>
<path d="M4.66092 13.3215H3.4139V11.3581H4.66092V11.7561H3.84372V12.1408H4.56806V12.5175H3.84372V12.9235H4.66092V13.3215Z" fill="#FFFCF7"/>
<path d="M7.66581 13.3215H6.41879V11.3581H7.66581V11.7561H6.84861V12.1408H7.57295V12.5175H6.84861V12.9235H7.66581V13.3215Z" fill="#FFFCF7"/>
<path d="M9.27245 12.759V12.621H9.68635V12.759C9.68635 12.8625 9.74472 12.958 9.90922 12.958C10.0684 12.958 10.1294 12.8757 10.1294 12.7431V11.3581H10.5593V12.7696C10.5593 13.1065 10.3099 13.356 9.91453 13.356C9.48205 13.356 9.27245 13.0986 9.27245 12.759Z" fill="#FFFCF7"/>
<path d="M12.5774 13.3215H12.129L12.8294 11.3581H13.2486L13.9464 13.3215H13.4901L13.3521 12.9076H12.718L12.5774 13.3215ZM12.9833 12.1275L12.8427 12.5467H13.2301L13.0894 12.1275C13.0682 12.0612 13.0443 11.9842 13.0364 11.9365C13.0284 11.9816 13.0072 12.0559 12.9833 12.1275Z" fill="#FFFCF7"/>
<path d="M16.011 13.3215H15.5812V11.3581H16.011V12.1328H16.7698V11.3581H17.1996V13.3215H16.7698V12.5308H16.011V13.3215Z" fill="#FFFCF7"/>
<path d="M18.9685 13.6531V13.3639H20.1385V13.6531H18.9685Z" fill="#FFFCF7"/>
<path d="M21.7983 11.9285C21.7983 11.573 22.0981 11.3209 22.5199 11.3209C22.9418 11.3209 23.2071 11.5544 23.2071 11.9259H22.78C22.78 11.7879 22.6765 11.703 22.5146 11.703C22.3395 11.703 22.2281 11.7826 22.2281 11.9126C22.2281 12.032 22.2891 12.0904 22.4271 12.1195L22.7216 12.1806C23.0718 12.2522 23.239 12.4194 23.239 12.7298C23.239 13.1092 22.9418 13.356 22.4908 13.356C22.053 13.356 21.7691 13.1198 21.7691 12.751H22.1963C22.1963 12.8943 22.3024 12.9739 22.4934 12.9739C22.6871 12.9739 22.8091 12.8969 22.8091 12.7722C22.8091 12.6635 22.7587 12.6077 22.6287 12.5812L22.3289 12.5202C21.9787 12.4485 21.7983 12.2496 21.7983 11.9285Z" fill="#FFFCF7"/>
<path d="M24.7529 11.7561V11.3581H26.2971V11.7561H25.7399V13.3215H25.3101V11.7561H24.7529Z" fill="#FFFCF7"/>
<path d="M28.3907 13.3215H27.9609V11.3581H28.7197C29.1973 11.3581 29.4679 11.5889 29.4679 11.9948C29.4679 12.2496 29.3591 12.43 29.1416 12.5414L29.4865 13.3215H29.0169L28.7224 12.6343H28.3907V13.3215ZM28.3907 11.7401V12.2575H28.7171C28.9054 12.2575 29.0142 12.162 29.0142 11.9948C29.0142 11.8303 28.9107 11.7401 28.7197 11.7401H28.3907Z" fill="#FFFCF7"/>
<path d="M31.4618 13.3215H31.0134L31.7138 11.3581H32.133L32.8308 13.3215H32.3745L32.2365 12.9076H31.6024L31.4618 13.3215ZM31.8677 12.1275L31.7271 12.5467H32.1145L31.9738 12.1275C31.9526 12.0612 31.9287 11.9842 31.9208 11.9365C31.9128 11.9816 31.8916 12.0559 31.8677 12.1275Z" fill="#FFFCF7"/>
<path d="M34.8901 13.3215H34.4655V11.3581H34.8901L35.7179 12.6077V11.3581H36.1424V13.3215H35.7179L34.8901 12.0744V13.3215Z" fill="#FFFCF7"/>
<path d="M38.727 13.3215H37.9576V11.3581H38.7005C39.2762 11.3581 39.6769 11.7614 39.6769 12.3451C39.6769 12.9182 39.2868 13.3215 38.727 13.3215ZM38.658 11.7561H38.3874V12.9235H38.6845C39.0242 12.9235 39.2232 12.7086 39.2232 12.3451C39.2232 11.9736 39.0135 11.7561 38.658 11.7561Z" fill="#FFFCF7"/>
<path d="M41.2734 11.9285C41.2734 11.573 41.5732 11.3209 41.9951 11.3209C42.417 11.3209 42.6823 11.5544 42.6823 11.9259H42.2551C42.2551 11.7879 42.1516 11.703 41.9898 11.703C41.8147 11.703 41.7032 11.7826 41.7032 11.9126C41.7032 12.032 41.7643 12.0904 41.9022 12.1195L42.1967 12.1806C42.547 12.2522 42.7141 12.4194 42.7141 12.7298C42.7141 13.1092 42.417 13.356 41.9659 13.356C41.5281 13.356 41.2442 13.1198 41.2442 12.751H41.6714C41.6714 12.8943 41.7775 12.9739 41.9686 12.9739C42.1623 12.9739 42.2843 12.8969 42.2843 12.7722C42.2843 12.6635 42.2339 12.6077 42.1039 12.5812L41.8041 12.5202C41.4538 12.4485 41.2734 12.2496 41.2734 11.9285Z" fill="#FFFCF7"/>
</g>
<defs>
<clipPath id="clip0_558_24173">
<rect width="44.7278" height="33" fill="white"/>
</clipPath>
</defs>
</svg>
