<svg width="50" height="36" viewBox="0 0 50 36" fill="none" xmlns="http://www.w3.org/2000/svg">
<g clip-path="url(#clip0_200_19308)">
<path fill-rule="evenodd" clip-rule="evenodd" d="M8.58001 30.4618C9.23633 30.8977 22.251 30.7445 24.4737 30.6394C26.3937 30.5487 27.5594 30.1366 29.2237 29.8495C30.2211 31.166 31.1801 35.5396 37.9531 35.9698C48.2263 36.6228 53.9121 26.2996 45.2751 17.9809C44.9296 17.6482 43.5341 16.5224 43.1974 16.3361C42.2271 15.7988 37.3992 16.1165 35.8981 16.0803C35.493 18.7733 35.3894 20.7159 34.2438 22.8923C33.3658 24.5609 31.5519 26.8556 29.9384 27.476C29.9366 25.1864 30.211 23.5328 31.3252 21.6409C32.4827 19.6758 32.3056 20.4226 31.8239 20.1524C31.4414 20.088 29.9786 22.3482 29.6307 23.2426C28.9361 25.0281 28.8368 26.1758 28.894 28.2759C26.3095 29.0383 25.5496 29.3579 22.3948 29.3579C20.0057 29.3579 17.1851 29.4936 14.8493 29.3241L14.7758 16.0903L11.9703 16.1128C11.7668 18.8196 11.937 22.1606 11.9376 24.8993C11.9382 26.1945 12.18 27.9276 11.5218 28.9201C10.537 30.4055 9.51582 29.7663 8.57812 30.4618H8.58001ZM30.4572 29.4317C31.9941 35.0086 41.3936 36.3513 45.049 31.1735C50.3115 23.7191 39.6815 17.2267 39.051 17.1235C38.7514 20.3606 37.8457 22.5559 36.3032 24.7379C34.1885 27.7306 32.2378 28.0927 30.4572 29.4317Z" fill="#010101"/>
<path fill-rule="evenodd" clip-rule="evenodd" d="M0.879049 6.57892C1.76461 6.23369 1.47633 5.6827 2.64515 4.40809C4.85969 1.99273 8.59163 1.46175 11.9304 1.4705L11.9386 11.6073L14.7824 11.728L14.7893 1.48364C18.4007 1.20532 25.4751 1.15216 28.4176 2.42051C34.3163 4.96284 31.985 6.48699 32.2067 8.99429C32.294 9.98433 32.5766 10.9956 33.1557 11.668L38.7467 11.713C38.275 8.86858 36.7771 6.51075 35.244 4.97722C35.6428 3.09284 38.2775 1.74756 40.9129 2.15846C44.9274 2.78451 44.5933 5.56574 45.156 6.53952C45.5423 6.12362 45.2151 6.76655 45.3771 6.10548C45.4362 5.86532 45.4343 5.79965 45.4456 5.54948L45.3595 1.2122C43.0778 1.15404 40.786 0.573026 38.5784 0.835702C35.9248 1.15154 35.0644 2.21475 33.8635 3.47309C31.4172 2.39612 30.9129 1.13715 26.1195 0.380397C23.1406 -0.0899176 18.7097 0.0120256 15.5706 0.00639686C10.4833 -0.00360984 4.17008 -0.106179 1.46691 4.6764C1.33942 4.90217 1.05302 5.41127 0.95944 5.63579C0.936202 5.69145 0.848902 5.86532 0.821267 6.05795C0.734595 6.6621 0.732711 6.2487 0.881561 6.57892H0.879049Z" fill="#010101"/>
<path d="M1.33121 14.5326H0.488281V12.3907H1.30215C1.93289 12.3907 2.3718 12.8307 2.3718 13.4674C2.3718 14.0926 1.94452 14.5326 1.33121 14.5326ZM1.25564 12.8249H0.959161V14.0984H1.28471C1.65676 14.0984 1.87476 13.864 1.87476 13.4674C1.87476 13.0622 1.64513 12.8249 1.25564 12.8249Z" fill="#373435"/>
<path d="M5.60616 14.5326H4.24003V12.3907H5.60616V12.8249H4.71091V13.2446H5.50443V13.6556H4.71091V14.0984H5.60616V14.5326Z" fill="#373435"/>
<path d="M8.89807 14.5326H7.53194V12.3907H8.89807V12.8249H8.00282V13.2446H8.79634V13.6556H8.00282V14.0984H8.89807V14.5326Z" fill="#373435"/>
<path d="M10.6582 13.919V13.7684H11.1116V13.919C11.1116 14.0318 11.1756 14.136 11.3558 14.136C11.5302 14.136 11.597 14.0463 11.597 13.9016V12.3907H12.0679V13.9305C12.0679 14.2981 11.7947 14.5702 11.3616 14.5702C10.8878 14.5702 10.6582 14.2894 10.6582 13.919Z" fill="#373435"/>
<path d="M14.2788 14.5326H13.7875L14.5549 12.3907H15.0141L15.7786 14.5326H15.2787L15.1275 14.081H14.4328L14.2788 14.5326ZM14.7235 13.2301L14.5694 13.6874H14.9938L14.8397 13.2301C14.8165 13.1577 14.7903 13.0738 14.7816 13.0217C14.7729 13.0709 14.7496 13.1519 14.7235 13.2301Z" fill="#373435"/>
<path d="M18.0403 14.5326H17.5695V12.3907H18.0403V13.2359H18.8716V12.3907H19.3425V14.5326H18.8716V13.67H18.0403V14.5326Z" fill="#373435"/>
<path d="M21.2803 14.8944V14.5789H22.5622V14.8944H21.2803Z" fill="#373435"/>
<path d="M24.3804 13.013C24.3804 12.6251 24.7089 12.3502 25.171 12.3502C25.6332 12.3502 25.9239 12.6049 25.9239 13.0101H25.4559C25.4559 12.8596 25.3425 12.767 25.1652 12.767C24.9734 12.767 24.8513 12.8538 24.8513 12.9956C24.8513 13.1259 24.9181 13.1896 25.0693 13.2214L25.3919 13.288C25.7756 13.3661 25.9587 13.5485 25.9587 13.8871C25.9587 14.301 25.6332 14.5702 25.139 14.5702C24.6595 14.5702 24.3484 14.3126 24.3484 13.9103H24.8164C24.8164 14.0666 24.9327 14.1534 25.142 14.1534C25.3541 14.1534 25.4879 14.0695 25.4879 13.9334C25.4879 13.8148 25.4326 13.754 25.2902 13.725L24.9617 13.6585C24.5781 13.5803 24.3804 13.3632 24.3804 13.013Z" fill="#373435"/>
<path d="M27.6173 12.8249V12.3907H29.309V12.8249H28.6986V14.5326H28.2277V12.8249H27.6173Z" fill="#373435"/>
<path d="M31.6025 14.5326H31.1317V12.3907H31.963C32.4862 12.3907 32.7826 12.6425 32.7826 13.0854C32.7826 13.3632 32.6635 13.56 32.4251 13.6816L32.803 14.5326H32.2885L31.9659 13.7829H31.6025V14.5326ZM31.6025 12.8075V13.3719H31.9601C32.1664 13.3719 32.2856 13.2677 32.2856 13.0854C32.2856 12.9059 32.1722 12.8075 31.963 12.8075H31.6025Z" fill="#373435"/>
<path d="M34.9669 14.5326H34.4757L35.2431 12.3907H35.7023L36.4668 14.5326H35.9668L35.8157 14.081H35.121L34.9669 14.5326ZM35.4116 13.2301L35.2576 13.6874H35.682L35.5279 13.2301C35.5047 13.1577 35.4785 13.0738 35.4698 13.0217C35.4611 13.0709 35.4378 13.1519 35.4116 13.2301Z" fill="#373435"/>
<path d="M38.7227 14.5326H38.2576V12.3907H38.7227L39.6296 13.754V12.3907H40.0946V14.5326H39.6296L38.7227 13.1722V14.5326Z" fill="#373435"/>
<path d="M42.9261 14.5326H42.0832V12.3907H42.8971C43.5278 12.3907 43.9667 12.8307 43.9667 13.4674C43.9667 14.0926 43.5394 14.5326 42.9261 14.5326ZM42.8505 12.8249H42.5541V14.0984H42.8796C43.2517 14.0984 43.4697 13.864 43.4697 13.4674C43.4697 13.0622 43.24 12.8249 42.8505 12.8249Z" fill="#373435"/>
<path d="M45.7158 13.013C45.7158 12.6251 46.0442 12.3502 46.5064 12.3502C46.9685 12.3502 47.2592 12.6049 47.2592 13.0101H46.7912C46.7912 12.8596 46.6779 12.767 46.5006 12.767C46.3087 12.767 46.1866 12.8538 46.1866 12.9956C46.1866 13.1259 46.2535 13.1896 46.4046 13.2214L46.7273 13.288C47.111 13.3661 47.2941 13.5485 47.2941 13.8871C47.2941 14.301 46.9685 14.5702 46.4744 14.5702C45.9948 14.5702 45.6838 14.3126 45.6838 13.9103H46.1518C46.1518 14.0666 46.268 14.1534 46.4773 14.1534C46.6895 14.1534 46.8232 14.0695 46.8232 13.9334C46.8232 13.8148 46.768 13.754 46.6256 13.725L46.2971 13.6585C45.9134 13.5803 45.7158 13.3632 45.7158 13.013Z" fill="#373435"/>
</g>
<defs>
<clipPath id="clip0_200_19308">
<rect width="49" height="36" fill="white" transform="translate(0.5)"/>
</clipPath>
</defs>
</svg>
