<svg width="57" height="57" viewBox="0 0 57 57" fill="none" xmlns="http://www.w3.org/2000/svg">
<rect x="0.730469" width="55.3023" height="56.5165" rx="27.6511" fill="#EEEEFF"/>
<g clip-path="url(#clip0_558_24454)">
<path fill-rule="evenodd" clip-rule="evenodd" d="M12.4206 39.6623C12.9984 40.0477 24.4562 39.9122 26.413 39.8193C28.1033 39.7391 29.1296 39.3748 30.5948 39.121C31.4729 40.2849 32.3172 44.1515 38.28 44.5319C47.3243 45.1092 52.33 35.9825 44.7261 28.628C44.422 28.3339 43.1933 27.3386 42.897 27.1738C42.0427 26.6988 37.7923 26.9797 36.4708 26.9477C36.1142 29.3286 36.023 31.046 35.0144 32.9702C34.2414 34.4454 32.6446 36.4741 31.2241 37.0226C31.2224 34.9983 31.4641 33.5364 32.4449 31.8638C33.464 30.1265 33.3081 30.7867 32.884 30.5478C32.5472 30.4908 31.2595 32.4891 30.9531 33.2798C30.3416 34.8584 30.2542 35.873 30.3046 37.7298C28.0293 38.4038 27.3602 38.6864 24.5828 38.6864C22.4795 38.6864 19.9963 38.8063 17.9399 38.6565L17.8753 26.9565L15.4053 26.9764C15.2262 29.3695 15.376 32.3232 15.3766 34.7445C15.3771 35.8896 15.59 37.4218 15.0105 38.2993C14.1435 39.6125 13.2445 39.0474 12.4189 39.6623H12.4206ZM31.6808 38.7516C33.0338 43.6821 41.309 44.8692 44.527 40.2915C49.16 33.7011 39.8017 27.9612 39.2465 27.8699C38.9828 30.7319 38.1855 32.6727 36.8275 34.6019C34.9658 37.2476 33.2484 37.5678 31.6808 38.7516Z" fill="#010101"/>
<path fill-rule="evenodd" clip-rule="evenodd" d="M5.63943 18.5477C6.41906 18.2425 6.16526 17.7553 7.19427 16.6285C9.14389 14.493 12.4294 14.0236 15.3688 14.0313L15.376 22.9932L17.8796 23.0999L17.8857 14.043C21.0651 13.7969 27.2933 13.7499 29.8837 14.8712C35.0768 17.1189 33.0244 18.4664 33.2196 20.6831C33.2964 21.5584 33.5452 22.4525 34.055 23.0469L38.9772 23.0867C38.562 20.572 37.2432 18.4874 35.8935 17.1316C36.2446 15.4656 38.5642 14.2763 40.8843 14.6396C44.4186 15.1931 44.1244 17.6519 44.6199 18.5128C44.9599 18.1451 44.6718 18.7136 44.8145 18.1291C44.8665 17.9168 44.8648 17.8587 44.8748 17.6376L44.799 13.803C42.7902 13.7516 40.7726 13.2379 38.829 13.4701C36.4929 13.7494 35.7354 14.6893 34.6782 15.8018C32.5245 14.8497 32.0805 13.7366 27.8606 13.0676C25.238 12.6518 21.3371 12.7419 18.5736 12.7369C14.0948 12.7281 8.53678 12.6374 6.15697 16.8657C6.04472 17.0653 5.79259 17.5154 5.7102 17.7139C5.68974 17.7631 5.61289 17.9168 5.58856 18.0871C5.51225 18.6212 5.51059 18.2557 5.64164 18.5477H5.63943Z" fill="#010101"/>
<path d="M6.038 25.5789H5.2959V23.6852H6.01241C6.5677 23.6852 6.9541 24.0742 6.9541 24.6372C6.9541 25.1899 6.57794 25.5789 6.038 25.5789ZM5.97146 24.0691H5.71045V25.195H5.99705C6.3246 25.195 6.51652 24.9877 6.51652 24.6372C6.51652 24.2789 6.31436 24.0691 5.97146 24.0691Z" fill="#373435"/>
<path d="M9.80156 25.5789H8.59885V23.6852H9.80156V24.0691H9.0134V24.4401H9.712V24.8035H9.0134V25.195H9.80156V25.5789Z" fill="#373435"/>
<path d="M12.6997 25.5789H11.497V23.6852H12.6997V24.0691H11.9115V24.4401H12.6101V24.8035H11.9115V25.195H12.6997V25.5789Z" fill="#373435"/>
<path d="M14.2492 25.0364V24.9033H14.6484V25.0364C14.6484 25.1362 14.7047 25.2283 14.8634 25.2283C15.0169 25.2283 15.0758 25.149 15.0758 25.021V23.6852H15.4903V25.0466C15.4903 25.3716 15.2498 25.6121 14.8685 25.6121C14.4514 25.6121 14.2492 25.3639 14.2492 25.0364Z" fill="#373435"/>
<path d="M17.4367 25.5789H17.0042L17.6798 23.6852H18.0841L18.7571 25.5789H18.317L18.1839 25.1797H17.5723L17.4367 25.5789ZM17.8282 24.4273L17.6926 24.8317H18.0662L17.9306 24.4273C17.9101 24.3634 17.8871 24.2892 17.8794 24.2431C17.8717 24.2866 17.8513 24.3582 17.8282 24.4273Z" fill="#373435"/>
<path d="M20.7483 25.5789H20.3338V23.6852H20.7483V24.4325H21.4802V23.6852H21.8947V25.5789H21.4802V24.8163H20.7483V25.5789Z" fill="#373435"/>
<path d="M23.6007 25.8987V25.6198H24.7292V25.8987H23.6007Z" fill="#373435"/>
<path d="M26.33 24.2354C26.33 23.8925 26.6191 23.6494 27.026 23.6494C27.4329 23.6494 27.6888 23.8746 27.6888 24.2329H27.2768C27.2768 24.0998 27.177 24.0179 27.0209 24.0179C26.852 24.0179 26.7445 24.0947 26.7445 24.2201C26.7445 24.3352 26.8034 24.3915 26.9364 24.4197L27.2205 24.4785C27.5583 24.5476 27.7195 24.7088 27.7195 25.0082C27.7195 25.3742 27.4329 25.6121 26.9979 25.6121C26.5756 25.6121 26.3018 25.3844 26.3018 25.0287H26.7138C26.7138 25.1669 26.8162 25.2436 27.0004 25.2436C27.1872 25.2436 27.3049 25.1694 27.3049 25.0492C27.3049 24.9442 27.2563 24.8905 27.1309 24.8649L26.8418 24.8061C26.504 24.737 26.33 24.545 26.33 24.2354Z" fill="#373435"/>
<path d="M29.1796 24.0691V23.6852H30.669V24.0691H30.1316V25.5789H29.717V24.0691H29.1796Z" fill="#373435"/>
<path d="M32.6882 25.5789H32.2736V23.6852H33.0055C33.4661 23.6852 33.7271 23.9079 33.7271 24.2994C33.7271 24.545 33.6222 24.7191 33.4123 24.8265L33.745 25.5789H33.2921L33.008 24.9161H32.6882V25.5789ZM32.6882 24.0537V24.5527H33.0029C33.1846 24.5527 33.2895 24.4606 33.2895 24.2994C33.2895 24.1407 33.1897 24.0537 33.0055 24.0537H32.6882Z" fill="#373435"/>
<path d="M35.6501 25.5789H35.2176L35.8932 23.6852H36.2975L36.9705 25.5789H36.5304L36.3973 25.1797H35.7857L35.6501 25.5789ZM36.0416 24.4273L35.906 24.8317H36.2796L36.144 24.4273C36.1235 24.3634 36.1005 24.2892 36.0928 24.2431C36.0851 24.2866 36.0646 24.3582 36.0416 24.4273Z" fill="#373435"/>
<path d="M38.9566 25.5789H38.5472V23.6852H38.9566L39.755 24.8905V23.6852H40.1644V25.5789H39.755L38.9566 24.3762V25.5789Z" fill="#373435"/>
<path d="M42.6572 25.5789H41.9151V23.6852H42.6316C43.1869 23.6852 43.5733 24.0742 43.5733 24.6372C43.5733 25.1899 43.1971 25.5789 42.6572 25.5789ZM42.5906 24.0691H42.3296V25.195H42.6162C42.9438 25.195 43.1357 24.9877 43.1357 24.6372C43.1357 24.2789 42.9335 24.0691 42.5906 24.0691Z" fill="#373435"/>
<path d="M45.1131 24.2354C45.1131 23.8925 45.4023 23.6494 45.8092 23.6494C46.216 23.6494 46.4719 23.8746 46.4719 24.2329H46.0599C46.0599 24.0998 45.9601 24.0179 45.804 24.0179C45.6351 24.0179 45.5277 24.0947 45.5277 24.2201C45.5277 24.3352 45.5865 24.3915 45.7196 24.4197L46.0036 24.4785C46.3414 24.5476 46.5026 24.7088 46.5026 25.0082C46.5026 25.3742 46.216 25.6121 45.781 25.6121C45.3588 25.6121 45.085 25.3844 45.085 25.0287H45.497C45.497 25.1669 45.5993 25.2436 45.7836 25.2436C45.9704 25.2436 46.0881 25.1694 46.0881 25.0492C46.0881 24.9442 46.0395 24.8905 45.9141 24.8649L45.6249 24.8061C45.2871 24.737 45.1131 24.545 45.1131 24.2354Z" fill="#373435"/>
</g>
<defs>
<clipPath id="clip0_558_24454">
<rect width="43.1385" height="31.8274" fill="white" transform="translate(5.30762 12.731)"/>
</clipPath>
</defs>
</svg>
